M48
;DRILL file {KiCad 4.0.7-e1-6374~58~ubuntu16.04.1} date Tue Aug 22 20:20:47 2017
;FORMAT={-:-/ absolute / inch / decimal}
FMAT,2
INCH,TZ
T1C0.010
T2C0.070
%
G90
G05
M72
T1
X5.4392Y-3.7895
X5.45Y-3.265
X5.45Y-3.285
X5.45Y-3.38
X5.455Y-3.455
X5.455Y-3.8
X5.475Y-3.265
X5.475Y-3.285
X5.4822Y-3.43
X5.49Y-3.34
X5.5Y-3.265
X5.5Y-3.285
X5.5Y-3.619
X5.5158Y-3.6587
X5.519Y-3.619
X5.52Y-3.76
X5.525Y-3.265
X5.525Y-3.285
X5.55Y-3.265
X5.55Y-3.285
X5.55Y-3.765
X5.56Y-3.39
X5.5658Y-3.5031
X5.5723Y-3.76
X5.587Y-3.5794
X5.625Y-3.2
X5.63Y-3.245
X5.63Y-3.64
X5.63Y-3.73
X5.645Y-3.18
X5.6683Y-3.5683
X5.67Y-3.215
X5.67Y-3.295
X5.685Y-3.23
X5.685Y-3.315
X5.69Y-3.57
X5.69Y-3.6278
X5.705Y-3.295
X5.7195Y-3.78
X5.72Y-3.6278
X5.725Y-3.18
X5.73Y-3.215
X5.7305Y-3.2968
X5.745Y-3.23
X5.7455Y-3.6278
X5.75Y-3.315
X5.765Y-3.295
X5.78Y-3.18
X5.79Y-3.22
X5.7907Y-3.2957
X5.805Y-3.235
X5.805Y-3.315
X5.855Y-3.22
X5.855Y-3.315
X5.8697Y-3.2347
X5.87Y-3.3
X5.915Y-3.245
X5.925Y-3.3
X5.93Y-3.6878
X5.945Y-3.31
X5.95Y-3.245
X5.955Y-3.7335
X5.96Y-3.6878
X5.98Y-3.37
X5.98Y-3.5878
X5.98Y-3.6878
X6.005Y-3.775
X6.01Y-3.5878
X6.04Y-3.665
X6.05Y-3.31
X6.05Y-3.34
X6.0922Y-3.31
X6.0922Y-3.34
X6.0946Y-3.7917
X6.095Y-3.265
X6.095Y-3.285
X6.1196Y-3.7967
X6.12Y-3.265
X6.12Y-3.285
X6.125Y-3.655
X6.14Y-3.265
X6.14Y-3.285
X6.15Y-3.82
X6.155Y-3.655
X6.16Y-3.265
X6.16Y-3.285
X6.17Y-3.795
X6.18Y-3.265
X6.18Y-3.285
X6.185Y-3.655
X6.2Y-3.265
X6.2Y-3.285
T2
X6.1225Y-3.56
T0
M30
