G04 #@! TF.FileFunction,Legend,Top*
%FSLAX46Y46*%
G04 Gerber Fmt 4.6, Leading zero omitted, Abs format (unit mm)*
G04 Created by KiCad (PCBNEW 4.0.6) date Tue Aug 22 16:56:35 2017*
%MOMM*%
%LPD*%
G01*
G04 APERTURE LIST*
%ADD10C,0.100000*%
%ADD11C,0.114300*%
%ADD12C,0.120000*%
%ADD13C,0.010000*%
G04 APERTURE END LIST*
D10*
D11*
X153391810Y-95189524D02*
X153149905Y-95358857D01*
X153391810Y-95479810D02*
X152883810Y-95479810D01*
X152883810Y-95286286D01*
X152908000Y-95237905D01*
X152932190Y-95213714D01*
X152980571Y-95189524D01*
X153053143Y-95189524D01*
X153101524Y-95213714D01*
X153125714Y-95237905D01*
X153149905Y-95286286D01*
X153149905Y-95479810D01*
X153125714Y-94971810D02*
X153125714Y-94802476D01*
X153391810Y-94729905D02*
X153391810Y-94971810D01*
X152883810Y-94971810D01*
X152883810Y-94729905D01*
X152883810Y-94560572D02*
X153391810Y-94221905D01*
X152883810Y-94221905D02*
X153391810Y-94560572D01*
X152883810Y-94100952D02*
X152883810Y-93810666D01*
X153391810Y-93955809D02*
X152883810Y-93955809D01*
X153440190Y-93762285D02*
X153440190Y-93375237D01*
X153391810Y-93254285D02*
X152883810Y-93254285D01*
X152883810Y-93133332D01*
X152908000Y-93060761D01*
X152956381Y-93012380D01*
X153004762Y-92988189D01*
X153101524Y-92963999D01*
X153174095Y-92963999D01*
X153270857Y-92988189D01*
X153319238Y-93012380D01*
X153367619Y-93060761D01*
X153391810Y-93133332D01*
X153391810Y-93254285D01*
X142469810Y-94645239D02*
X142227905Y-94814572D01*
X142469810Y-94935525D02*
X141961810Y-94935525D01*
X141961810Y-94742001D01*
X141986000Y-94693620D01*
X142010190Y-94669429D01*
X142058571Y-94645239D01*
X142131143Y-94645239D01*
X142179524Y-94669429D01*
X142203714Y-94693620D01*
X142227905Y-94742001D01*
X142227905Y-94935525D01*
X142203714Y-94427525D02*
X142203714Y-94258191D01*
X142469810Y-94185620D02*
X142469810Y-94427525D01*
X141961810Y-94427525D01*
X141961810Y-94185620D01*
X141961810Y-94016287D02*
X142469810Y-93677620D01*
X141961810Y-93677620D02*
X142469810Y-94016287D01*
X141961810Y-93556667D02*
X141961810Y-93266381D01*
X142469810Y-93411524D02*
X141961810Y-93411524D01*
X142518190Y-93218000D02*
X142518190Y-92830952D01*
X142324667Y-92734190D02*
X142324667Y-92492285D01*
X142469810Y-92782571D02*
X141961810Y-92613238D01*
X142469810Y-92443904D01*
X146932953Y-87303429D02*
X146908763Y-87327619D01*
X146836191Y-87351810D01*
X146787810Y-87351810D01*
X146715239Y-87327619D01*
X146666858Y-87279238D01*
X146642667Y-87230857D01*
X146618477Y-87134095D01*
X146618477Y-87061524D01*
X146642667Y-86964762D01*
X146666858Y-86916381D01*
X146715239Y-86868000D01*
X146787810Y-86843810D01*
X146836191Y-86843810D01*
X146908763Y-86868000D01*
X146932953Y-86892190D01*
X147150667Y-87351810D02*
X147150667Y-86843810D01*
X147320001Y-87206667D01*
X147489334Y-86843810D01*
X147489334Y-87351810D01*
X147731238Y-87351810D02*
X147731238Y-86843810D01*
X147852191Y-86843810D01*
X147924762Y-86868000D01*
X147973143Y-86916381D01*
X147997334Y-86964762D01*
X148021524Y-87061524D01*
X148021524Y-87134095D01*
X147997334Y-87230857D01*
X147973143Y-87279238D01*
X147924762Y-87327619D01*
X147852191Y-87351810D01*
X147731238Y-87351810D01*
X144997714Y-86139564D02*
X145167048Y-86139564D01*
X145239619Y-86405660D02*
X144997714Y-86405660D01*
X144997714Y-85897660D01*
X145239619Y-85897660D01*
X145408952Y-85897660D02*
X145747619Y-86405660D01*
X145747619Y-85897660D02*
X145408952Y-86405660D01*
X145868572Y-85897660D02*
X146158858Y-85897660D01*
X146013715Y-86405660D02*
X146013715Y-85897660D01*
X145154953Y-87233579D02*
X145130763Y-87257769D01*
X145058191Y-87281960D01*
X145009810Y-87281960D01*
X144937239Y-87257769D01*
X144888858Y-87209388D01*
X144864667Y-87161007D01*
X144840477Y-87064245D01*
X144840477Y-86991674D01*
X144864667Y-86894912D01*
X144888858Y-86846531D01*
X144937239Y-86798150D01*
X145009810Y-86773960D01*
X145058191Y-86773960D01*
X145130763Y-86798150D01*
X145154953Y-86822340D01*
X145372667Y-87281960D02*
X145372667Y-86773960D01*
X145542001Y-87136817D01*
X145711334Y-86773960D01*
X145711334Y-87281960D01*
X145953238Y-87281960D02*
X145953238Y-86773960D01*
X146074191Y-86773960D01*
X146146762Y-86798150D01*
X146195143Y-86846531D01*
X146219334Y-86894912D01*
X146243524Y-86991674D01*
X146243524Y-87064245D01*
X146219334Y-87161007D01*
X146195143Y-87209388D01*
X146146762Y-87257769D01*
X146074191Y-87281960D01*
X145953238Y-87281960D01*
X138248571Y-88621810D02*
X138248571Y-88113810D01*
X138780762Y-88621810D02*
X138611429Y-88379905D01*
X138490476Y-88621810D02*
X138490476Y-88113810D01*
X138684000Y-88113810D01*
X138732381Y-88138000D01*
X138756572Y-88162190D01*
X138780762Y-88210571D01*
X138780762Y-88283143D01*
X138756572Y-88331524D01*
X138732381Y-88355714D01*
X138684000Y-88379905D01*
X138490476Y-88379905D01*
X138998476Y-88355714D02*
X139167810Y-88355714D01*
X139240381Y-88621810D02*
X138998476Y-88621810D01*
X138998476Y-88113810D01*
X139240381Y-88113810D01*
X139627429Y-88355714D02*
X139458095Y-88355714D01*
X139458095Y-88621810D02*
X139458095Y-88113810D01*
X139700000Y-88113810D01*
X140208001Y-88113810D02*
X140498287Y-88113810D01*
X140353144Y-88621810D02*
X140353144Y-88113810D01*
X140667620Y-88621810D02*
X140667620Y-88283143D01*
X140667620Y-88379905D02*
X140691811Y-88331524D01*
X140716001Y-88307333D01*
X140764382Y-88283143D01*
X140812763Y-88283143D01*
X140982096Y-88621810D02*
X140982096Y-88283143D01*
X140982096Y-88113810D02*
X140957906Y-88138000D01*
X140982096Y-88162190D01*
X141006287Y-88138000D01*
X140982096Y-88113810D01*
X140982096Y-88162190D01*
X141224001Y-88621810D02*
X141224001Y-88283143D01*
X141224001Y-88331524D02*
X141248192Y-88307333D01*
X141296573Y-88283143D01*
X141369144Y-88283143D01*
X141417525Y-88307333D01*
X141441716Y-88355714D01*
X141441716Y-88621810D01*
X141441716Y-88355714D02*
X141465906Y-88307333D01*
X141514287Y-88283143D01*
X141586859Y-88283143D01*
X141635239Y-88307333D01*
X141659430Y-88355714D01*
X141659430Y-88621810D01*
D12*
X154594000Y-87472000D02*
X154594000Y-86772000D01*
X155794000Y-86772000D02*
X155794000Y-87472000D01*
X157906000Y-86634000D02*
X157906000Y-87634000D01*
X156546000Y-87634000D02*
X156546000Y-86634000D01*
X153778500Y-86622000D02*
X153778500Y-87622000D01*
X152418500Y-87622000D02*
X152418500Y-86622000D01*
D13*
X149725380Y-100606860D02*
X149898100Y-97561400D01*
X140126720Y-100596700D02*
X140726160Y-97523300D01*
X140218160Y-100594160D02*
X140784580Y-97541080D01*
X140324840Y-100594160D02*
X140832840Y-97556320D01*
X140423900Y-100594160D02*
X140891260Y-97561400D01*
X144528540Y-100604320D02*
X144503140Y-97541080D01*
X144617440Y-100599240D02*
X144561560Y-97546160D01*
X144724120Y-100596700D02*
X144627600Y-97556320D01*
X144823180Y-100596700D02*
X144663160Y-97558860D01*
X144924780Y-100599240D02*
X144716500Y-97566480D01*
X147927060Y-100594160D02*
X147584160Y-97508060D01*
X148015960Y-100606860D02*
X147828000Y-97520760D01*
X148216620Y-100611940D02*
X148074380Y-97566480D01*
X148310600Y-100611940D02*
X148338540Y-97581720D01*
X148516340Y-100596700D02*
X148610320Y-97551240D01*
X148617940Y-100604320D02*
X148838920Y-97556320D01*
X148823680Y-100604320D02*
X149103080Y-97546160D01*
X148927820Y-100594160D02*
X149354540Y-97584260D01*
X140014960Y-100596700D02*
X140657580Y-97513140D01*
X149816820Y-100617020D02*
X149943820Y-97571560D01*
X149918420Y-100594160D02*
X149997160Y-97594420D01*
X150027640Y-100594160D02*
X150075900Y-97617280D01*
X150121620Y-100596700D02*
X150152100Y-97617280D01*
M02*
