M48
;DRILL file {KiCad 4.0.6} date Tue Aug 22 16:56:43 2017
;FORMAT={-:-/ absolute / inch / decimal}
FMAT,2
INCH,TZ
T1C0.010
T2C0.070
%
G90
G05
M72
T1
X5.4392Y-3.7895
X5.45Y-3.265
X5.45Y-3.285
X5.45Y-3.38
X5.455Y-3.455
X5.455Y-3.8
X5.475Y-3.265
X5.475Y-3.285
X5.4822Y-3.43
X5.49Y-3.34
X5.5Y-3.265
X5.5Y-3.285
X5.5Y-3.6578
X5.525Y-3.265
X5.525Y-3.285
X5.525Y-3.615
X5.525Y-3.6578
X5.5425Y-3.79
X5.55Y-3.265
X5.55Y-3.285
X5.5658Y-3.5031
X5.5675Y-3.7825
X5.5855Y-3.5796
X5.5925Y-3.795
X5.63Y-3.2
X5.63Y-3.64
X5.63Y-3.73
X5.645Y-3.245
X5.66Y-3.18
X5.67Y-3.57
X5.675Y-3.2938
X5.6897Y-3.5703
X5.69Y-3.6278
X5.705Y-3.215
X5.7075Y-3.295
X5.7195Y-3.78
X5.72Y-3.3125
X5.72Y-3.58
X5.72Y-3.6278
X5.7225Y-3.23
X5.73Y-3.125
X5.74Y-3.215
X5.74Y-3.295
X5.7455Y-3.6278
X5.755Y-3.2325
X5.755Y-3.315
X5.775Y-3.2975
X5.78Y-3.18
X5.7825Y-3.2175
X5.79Y-3.315
X5.795Y-3.2325
X5.815Y-3.305
X5.835Y-3.2175
X5.8375Y-3.2975
X5.855Y-3.2325
X5.855Y-3.315
X5.885Y-3.2325
X5.9075Y-3.2975
X5.93Y-3.6878
X5.9309Y-3.785
X5.96Y-3.6878
X5.97Y-3.34
X5.98Y-3.5878
X5.98Y-3.6878
X6.005Y-3.775
X6.01Y-3.5878
X6.0399Y-3.84
X6.04Y-3.52
X6.04Y-3.665
X6.05Y-3.31
X6.05Y-3.34
X6.0922Y-3.31
X6.0922Y-3.34
X6.0946Y-3.7917
X6.095Y-3.265
X6.095Y-3.285
X6.1196Y-3.7967
X6.12Y-3.265
X6.12Y-3.285
X6.125Y-3.6978
X6.14Y-3.265
X6.14Y-3.285
X6.15Y-3.82
X6.155Y-3.6978
X6.16Y-3.265
X6.16Y-3.285
X6.17Y-3.795
X6.18Y-3.265
X6.18Y-3.285
X6.185Y-3.6978
X6.2Y-3.265
X6.2Y-3.285
T2
X6.1225Y-3.56
T0
M30
