G04 #@! TF.FileFunction,Drawing*
%FSLAX46Y46*%
G04 Gerber Fmt 4.6, Leading zero omitted, Abs format (unit mm)*
G04 Created by KiCad (PCBNEW 4.0.6) date Tue Aug 22 16:56:35 2017*
%MOMM*%
%LPD*%
G01*
G04 APERTURE LIST*
%ADD10C,0.100000*%
%ADD11C,0.300000*%
%ADD12C,0.010000*%
G04 APERTURE END LIST*
D10*
D11*
X169124229Y-96092185D02*
X169052800Y-96020756D01*
X168981371Y-95877899D01*
X168981371Y-95520756D01*
X169052800Y-95377899D01*
X169124229Y-95306470D01*
X169267086Y-95235042D01*
X169409943Y-95235042D01*
X169624229Y-95306470D01*
X170481371Y-96163613D01*
X170481371Y-95235042D01*
X170481371Y-93806471D02*
X170481371Y-94663614D01*
X170481371Y-94235042D02*
X168981371Y-94235042D01*
X169195657Y-94377899D01*
X169338514Y-94520757D01*
X169409943Y-94663614D01*
X170338514Y-93163614D02*
X170409943Y-93092186D01*
X170481371Y-93163614D01*
X170409943Y-93235043D01*
X170338514Y-93163614D01*
X170481371Y-93163614D01*
X169481371Y-91806471D02*
X170481371Y-91806471D01*
X168909943Y-92163614D02*
X169981371Y-92520757D01*
X169981371Y-91592185D01*
X170481371Y-90235043D02*
X170481371Y-91092186D01*
X170481371Y-90663614D02*
X168981371Y-90663614D01*
X169195657Y-90806471D01*
X169338514Y-90949329D01*
X169409943Y-91092186D01*
X169124229Y-89663615D02*
X169052800Y-89592186D01*
X168981371Y-89449329D01*
X168981371Y-89092186D01*
X169052800Y-88949329D01*
X169124229Y-88877900D01*
X169267086Y-88806472D01*
X169409943Y-88806472D01*
X169624229Y-88877900D01*
X170481371Y-89735043D01*
X170481371Y-88806472D01*
X170481371Y-87020758D02*
X169481371Y-87020758D01*
X169624229Y-87020758D02*
X169552800Y-86949330D01*
X169481371Y-86806472D01*
X169481371Y-86592187D01*
X169552800Y-86449330D01*
X169695657Y-86377901D01*
X170481371Y-86377901D01*
X169695657Y-86377901D02*
X169552800Y-86306472D01*
X169481371Y-86163615D01*
X169481371Y-85949330D01*
X169552800Y-85806472D01*
X169695657Y-85735044D01*
X170481371Y-85735044D01*
X170481371Y-85020758D02*
X169481371Y-85020758D01*
X169624229Y-85020758D02*
X169552800Y-84949330D01*
X169481371Y-84806472D01*
X169481371Y-84592187D01*
X169552800Y-84449330D01*
X169695657Y-84377901D01*
X170481371Y-84377901D01*
X169695657Y-84377901D02*
X169552800Y-84306472D01*
X169481371Y-84163615D01*
X169481371Y-83949330D01*
X169552800Y-83806472D01*
X169695657Y-83735044D01*
X170481371Y-83735044D01*
X168452800Y-100584000D02*
X168452800Y-79171800D01*
X167132000Y-100584000D02*
X171152800Y-100584000D01*
X167132000Y-79171800D02*
X171152800Y-79171800D01*
X168452800Y-79171800D02*
X169039221Y-80298304D01*
X168452800Y-79171800D02*
X167866379Y-80298304D01*
X168452800Y-100584000D02*
X169039221Y-99457496D01*
X168452800Y-100584000D02*
X167866379Y-99457496D01*
X165041971Y-99870542D02*
X165041971Y-100727685D01*
X165041971Y-100299113D02*
X163541971Y-100299113D01*
X163756257Y-100441970D01*
X163899114Y-100584828D01*
X163970543Y-100727685D01*
X165041971Y-98441971D02*
X165041971Y-99299114D01*
X165041971Y-98870542D02*
X163541971Y-98870542D01*
X163756257Y-99013399D01*
X163899114Y-99156257D01*
X163970543Y-99299114D01*
X164899114Y-97799114D02*
X164970543Y-97727686D01*
X165041971Y-97799114D01*
X164970543Y-97870543D01*
X164899114Y-97799114D01*
X165041971Y-97799114D01*
X165041971Y-97013400D02*
X165041971Y-96727685D01*
X164970543Y-96584828D01*
X164899114Y-96513400D01*
X164684829Y-96370542D01*
X164399114Y-96299114D01*
X163827686Y-96299114D01*
X163684829Y-96370542D01*
X163613400Y-96441971D01*
X163541971Y-96584828D01*
X163541971Y-96870542D01*
X163613400Y-97013400D01*
X163684829Y-97084828D01*
X163827686Y-97156257D01*
X164184829Y-97156257D01*
X164327686Y-97084828D01*
X164399114Y-97013400D01*
X164470543Y-96870542D01*
X164470543Y-96584828D01*
X164399114Y-96441971D01*
X164327686Y-96370542D01*
X164184829Y-96299114D01*
X163541971Y-95799114D02*
X163541971Y-94870543D01*
X164113400Y-95370543D01*
X164113400Y-95156257D01*
X164184829Y-95013400D01*
X164256257Y-94941971D01*
X164399114Y-94870543D01*
X164756257Y-94870543D01*
X164899114Y-94941971D01*
X164970543Y-95013400D01*
X165041971Y-95156257D01*
X165041971Y-95584829D01*
X164970543Y-95727686D01*
X164899114Y-95799114D01*
X164184829Y-94013400D02*
X164113400Y-94156258D01*
X164041971Y-94227686D01*
X163899114Y-94299115D01*
X163827686Y-94299115D01*
X163684829Y-94227686D01*
X163613400Y-94156258D01*
X163541971Y-94013400D01*
X163541971Y-93727686D01*
X163613400Y-93584829D01*
X163684829Y-93513400D01*
X163827686Y-93441972D01*
X163899114Y-93441972D01*
X164041971Y-93513400D01*
X164113400Y-93584829D01*
X164184829Y-93727686D01*
X164184829Y-94013400D01*
X164256257Y-94156258D01*
X164327686Y-94227686D01*
X164470543Y-94299115D01*
X164756257Y-94299115D01*
X164899114Y-94227686D01*
X164970543Y-94156258D01*
X165041971Y-94013400D01*
X165041971Y-93727686D01*
X164970543Y-93584829D01*
X164899114Y-93513400D01*
X164756257Y-93441972D01*
X164470543Y-93441972D01*
X164327686Y-93513400D01*
X164256257Y-93584829D01*
X164184829Y-93727686D01*
X165041971Y-91656258D02*
X164041971Y-91656258D01*
X164184829Y-91656258D02*
X164113400Y-91584830D01*
X164041971Y-91441972D01*
X164041971Y-91227687D01*
X164113400Y-91084830D01*
X164256257Y-91013401D01*
X165041971Y-91013401D01*
X164256257Y-91013401D02*
X164113400Y-90941972D01*
X164041971Y-90799115D01*
X164041971Y-90584830D01*
X164113400Y-90441972D01*
X164256257Y-90370544D01*
X165041971Y-90370544D01*
X165041971Y-89656258D02*
X164041971Y-89656258D01*
X164184829Y-89656258D02*
X164113400Y-89584830D01*
X164041971Y-89441972D01*
X164041971Y-89227687D01*
X164113400Y-89084830D01*
X164256257Y-89013401D01*
X165041971Y-89013401D01*
X164256257Y-89013401D02*
X164113400Y-88941972D01*
X164041971Y-88799115D01*
X164041971Y-88584830D01*
X164113400Y-88441972D01*
X164256257Y-88370544D01*
X165041971Y-88370544D01*
X160528000Y-100521883D02*
X160528000Y-88583883D01*
X159004000Y-100521883D02*
X163228000Y-100521883D01*
X159004000Y-88583883D02*
X163228000Y-88583883D01*
X160528000Y-88583883D02*
X161114421Y-89710387D01*
X160528000Y-88583883D02*
X159941579Y-89710387D01*
X160528000Y-100521883D02*
X161114421Y-99395379D01*
X160528000Y-100521883D02*
X159941579Y-99395379D01*
X141740715Y-103033429D02*
X141812144Y-102962000D01*
X141955001Y-102890571D01*
X142312144Y-102890571D01*
X142455001Y-102962000D01*
X142526430Y-103033429D01*
X142597858Y-103176286D01*
X142597858Y-103319143D01*
X142526430Y-103533429D01*
X141669287Y-104390571D01*
X142597858Y-104390571D01*
X143526429Y-102890571D02*
X143669286Y-102890571D01*
X143812143Y-102962000D01*
X143883572Y-103033429D01*
X143955001Y-103176286D01*
X144026429Y-103462000D01*
X144026429Y-103819143D01*
X143955001Y-104104857D01*
X143883572Y-104247714D01*
X143812143Y-104319143D01*
X143669286Y-104390571D01*
X143526429Y-104390571D01*
X143383572Y-104319143D01*
X143312143Y-104247714D01*
X143240715Y-104104857D01*
X143169286Y-103819143D01*
X143169286Y-103462000D01*
X143240715Y-103176286D01*
X143312143Y-103033429D01*
X143383572Y-102962000D01*
X143526429Y-102890571D01*
X144669286Y-104247714D02*
X144740714Y-104319143D01*
X144669286Y-104390571D01*
X144597857Y-104319143D01*
X144669286Y-104247714D01*
X144669286Y-104390571D01*
X145669286Y-102890571D02*
X145812143Y-102890571D01*
X145955000Y-102962000D01*
X146026429Y-103033429D01*
X146097858Y-103176286D01*
X146169286Y-103462000D01*
X146169286Y-103819143D01*
X146097858Y-104104857D01*
X146026429Y-104247714D01*
X145955000Y-104319143D01*
X145812143Y-104390571D01*
X145669286Y-104390571D01*
X145526429Y-104319143D01*
X145455000Y-104247714D01*
X145383572Y-104104857D01*
X145312143Y-103819143D01*
X145312143Y-103462000D01*
X145383572Y-103176286D01*
X145455000Y-103033429D01*
X145526429Y-102962000D01*
X145669286Y-102890571D01*
X147455000Y-102890571D02*
X147169286Y-102890571D01*
X147026429Y-102962000D01*
X146955000Y-103033429D01*
X146812143Y-103247714D01*
X146740714Y-103533429D01*
X146740714Y-104104857D01*
X146812143Y-104247714D01*
X146883571Y-104319143D01*
X147026429Y-104390571D01*
X147312143Y-104390571D01*
X147455000Y-104319143D01*
X147526429Y-104247714D01*
X147597857Y-104104857D01*
X147597857Y-103747714D01*
X147526429Y-103604857D01*
X147455000Y-103533429D01*
X147312143Y-103462000D01*
X147026429Y-103462000D01*
X146883571Y-103533429D01*
X146812143Y-103604857D01*
X146740714Y-103747714D01*
X148883571Y-102890571D02*
X148597857Y-102890571D01*
X148455000Y-102962000D01*
X148383571Y-103033429D01*
X148240714Y-103247714D01*
X148169285Y-103533429D01*
X148169285Y-104104857D01*
X148240714Y-104247714D01*
X148312142Y-104319143D01*
X148455000Y-104390571D01*
X148740714Y-104390571D01*
X148883571Y-104319143D01*
X148955000Y-104247714D01*
X149026428Y-104104857D01*
X149026428Y-103747714D01*
X148955000Y-103604857D01*
X148883571Y-103533429D01*
X148740714Y-103462000D01*
X148455000Y-103462000D01*
X148312142Y-103533429D01*
X148240714Y-103604857D01*
X148169285Y-103747714D01*
X150812142Y-104390571D02*
X150812142Y-103390571D01*
X150812142Y-103533429D02*
X150883570Y-103462000D01*
X151026428Y-103390571D01*
X151240713Y-103390571D01*
X151383570Y-103462000D01*
X151454999Y-103604857D01*
X151454999Y-104390571D01*
X151454999Y-103604857D02*
X151526428Y-103462000D01*
X151669285Y-103390571D01*
X151883570Y-103390571D01*
X152026428Y-103462000D01*
X152097856Y-103604857D01*
X152097856Y-104390571D01*
X152812142Y-104390571D02*
X152812142Y-103390571D01*
X152812142Y-103533429D02*
X152883570Y-103462000D01*
X153026428Y-103390571D01*
X153240713Y-103390571D01*
X153383570Y-103462000D01*
X153454999Y-103604857D01*
X153454999Y-104390571D01*
X153454999Y-103604857D02*
X153526428Y-103462000D01*
X153669285Y-103390571D01*
X153883570Y-103390571D01*
X154026428Y-103462000D01*
X154097856Y-103604857D01*
X154097856Y-104390571D01*
X137922000Y-102362000D02*
X157988000Y-102362000D01*
X137922000Y-101092000D02*
X137922000Y-105062000D01*
X157988000Y-101092000D02*
X157988000Y-105062000D01*
X157988000Y-102362000D02*
X156861496Y-102948421D01*
X157988000Y-102362000D02*
X156861496Y-101775579D01*
X137922000Y-102362000D02*
X139048504Y-102948421D01*
X137922000Y-102362000D02*
X139048504Y-101775579D01*
D12*
X139125960Y-100596700D02*
X139341860Y-97505520D01*
X139024360Y-100614480D02*
X139090400Y-97505520D01*
X138917680Y-100586540D02*
X138877040Y-97480120D01*
X138127740Y-100584000D02*
X138140440Y-97515680D01*
X138211560Y-100589080D02*
X138407140Y-97482660D01*
X138330940Y-100589080D02*
X138526520Y-97482660D01*
X138821160Y-100584000D02*
X138780520Y-97477580D01*
X139227560Y-100594160D02*
X139613640Y-97505520D01*
X139329160Y-100594160D02*
X139890500Y-97495360D01*
X139423140Y-100589080D02*
X140144500Y-98036380D01*
X139527280Y-100594160D02*
X140248640Y-98041460D01*
X139621260Y-100589080D02*
X140342620Y-98036380D01*
X139725400Y-100596700D02*
X140446760Y-98044000D01*
X139824460Y-100594160D02*
X140545820Y-98041460D01*
X139923520Y-100596700D02*
X140644880Y-98044000D01*
X140512800Y-100599240D02*
X141135100Y-97467420D01*
X140627100Y-100584000D02*
X141198600Y-97510600D01*
X140731240Y-100596700D02*
X141262100Y-97518220D01*
X140822680Y-100609400D02*
X141328140Y-97525840D01*
X140914120Y-100604320D02*
X141406880Y-97518220D01*
X141025880Y-100609400D02*
X141485620Y-97533460D01*
X141119860Y-100601780D02*
X141579600Y-97525840D01*
X141208760Y-100606860D02*
X141668500Y-97530920D01*
X141317980Y-100589080D02*
X141894560Y-97492820D01*
X141424660Y-100584000D02*
X141955520Y-97520760D01*
X141513560Y-100609400D02*
X142024100Y-97520760D01*
X141615160Y-100589080D02*
X142077440Y-97541080D01*
X141711680Y-100584000D02*
X142173960Y-97536000D01*
X141831060Y-100591620D02*
X142166340Y-98102420D01*
X141917420Y-100601780D02*
X142229840Y-98107500D01*
X142019020Y-100584000D02*
X142288260Y-98112580D01*
X142115540Y-100589080D02*
X142361920Y-98117660D01*
X142214600Y-100604320D02*
X142415260Y-98110040D01*
X142331440Y-100591620D02*
X142681960Y-97553780D01*
X142425420Y-100589080D02*
X142948660Y-97586800D01*
X143230600Y-100594160D02*
X143027400Y-98374200D01*
X143324580Y-100596700D02*
X143078200Y-98374200D01*
X143433800Y-100591620D02*
X143154400Y-98374200D01*
X143527780Y-100601780D02*
X143195040Y-97518220D01*
X143624300Y-100601780D02*
X143466820Y-97553780D01*
X143720820Y-100594160D02*
X143705580Y-97558860D01*
X143929100Y-100594160D02*
X143951960Y-97576640D01*
X144028160Y-100594160D02*
X144236440Y-98092260D01*
X144122140Y-100594160D02*
X144299940Y-98097340D01*
X144218660Y-100594160D02*
X144396460Y-98097340D01*
X144320260Y-100594160D02*
X144498060Y-98097340D01*
X144419320Y-100601780D02*
X144597120Y-98104960D01*
X145006060Y-100611940D02*
X145008600Y-97538540D01*
X145140680Y-100599240D02*
X145077180Y-97515680D01*
X145224500Y-100599240D02*
X145153380Y-97561400D01*
X145321020Y-100604320D02*
X145227040Y-97574100D01*
X145422620Y-100604320D02*
X145298160Y-97589340D01*
X145516600Y-100594160D02*
X145371820Y-97594420D01*
X145613120Y-100604320D02*
X145463260Y-97602040D01*
X145724880Y-100591620D02*
X145536920Y-97614740D01*
X145821400Y-100599240D02*
X145747740Y-97609660D01*
X145925540Y-100589080D02*
X145816320Y-97619820D01*
X146016980Y-100599240D02*
X145892520Y-97627440D01*
X146108420Y-100599240D02*
X145981420Y-97627440D01*
X146210020Y-100599240D02*
X146055080Y-97619820D01*
X146324320Y-100594160D02*
X146164300Y-98077020D01*
X146428460Y-100589080D02*
X146227800Y-98089720D01*
X146519900Y-100594160D02*
X146288760Y-98089720D01*
X146616420Y-100604320D02*
X146362420Y-98099880D01*
X146723100Y-100599240D02*
X146439983Y-98118902D01*
X146820797Y-100592918D02*
X146512280Y-98117660D01*
X146918680Y-100604320D02*
X146552920Y-97515680D01*
X147022820Y-100617020D02*
X146814540Y-97528380D01*
X147124420Y-100596700D02*
X147055840Y-97467420D01*
X147215860Y-100594160D02*
X147309840Y-97536000D01*
X147322540Y-100596700D02*
X147370800Y-98450400D01*
X147419060Y-100599240D02*
X147457160Y-98084640D01*
X147721320Y-100606860D02*
X147574000Y-98450400D01*
X147822920Y-100591620D02*
X147754340Y-98125280D01*
X148109940Y-100604320D02*
X148000720Y-98140520D01*
X148414740Y-100604320D02*
X148384260Y-98145600D01*
X148717000Y-100604320D02*
X148823680Y-98110040D01*
X149021800Y-100609400D02*
X149326600Y-98120200D01*
X149128480Y-100591620D02*
X149377400Y-98475800D01*
X149214840Y-100599240D02*
X149639020Y-98064320D01*
X149313900Y-100591620D02*
X149712680Y-98082100D01*
X149415500Y-100599240D02*
X149781260Y-98089720D01*
X149517100Y-100591620D02*
X149849840Y-98089720D01*
X149621240Y-100594160D02*
X149918420Y-98099880D01*
X150223220Y-100601780D02*
X150401020Y-97594420D01*
X150322280Y-100617020D02*
X150454360Y-97609660D01*
X150406100Y-100601780D02*
X150522940Y-97586800D01*
X150515320Y-100601780D02*
X150593469Y-97602273D01*
X150622591Y-100593927D02*
X150670260Y-97617280D01*
X150724191Y-100601547D02*
X150748187Y-97640953D01*
X150824064Y-100601547D02*
X150817580Y-97640140D01*
X150918044Y-100586307D02*
X150888700Y-97647760D01*
X151024724Y-100601547D02*
X151142700Y-97617280D01*
X151100924Y-100601547D02*
X151218900Y-97617280D01*
X151217764Y-100609167D02*
X151290020Y-97640140D01*
X151320500Y-100589080D02*
X151358600Y-97647760D01*
X151414480Y-100596700D02*
X151421213Y-97687368D01*
X151514427Y-100596700D02*
X151483060Y-98089720D01*
X151623647Y-100604320D02*
X151552723Y-98112844D01*
X151716544Y-100596436D02*
X151615140Y-98112580D01*
X151815604Y-100596436D02*
X151661026Y-98097373D01*
X151917038Y-100604023D02*
X151683720Y-98003360D01*
X152028024Y-100596467D02*
X151927560Y-97541080D01*
X152217120Y-100591620D02*
X152196800Y-97586800D01*
X152326340Y-100606860D02*
X152415240Y-97566480D01*
X152422860Y-100601780D02*
X152692100Y-97566480D01*
X153723340Y-100601780D02*
X153819860Y-98125280D01*
X152915620Y-100604320D02*
X152923240Y-97599500D01*
X153621740Y-100594160D02*
X153763980Y-98117660D01*
X153824940Y-100594160D02*
X153873200Y-98107500D01*
X153931620Y-100596700D02*
X153918920Y-98117660D01*
X154028140Y-100601780D02*
X153982420Y-98099880D01*
X154127200Y-100596700D02*
X154051000Y-97777300D01*
X154198320Y-100591620D02*
X154122120Y-97779840D01*
X154320240Y-100601780D02*
X154180540Y-97779840D01*
X154419300Y-100606860D02*
X154241500Y-97777300D01*
X154520900Y-100594160D02*
X154307540Y-97767140D01*
X154721560Y-100589080D02*
X154706320Y-97779840D01*
X154622500Y-100584000D02*
X154607260Y-97772220D01*
X154828240Y-100589080D02*
X154772360Y-97777300D01*
X154927300Y-100596700D02*
X154815540Y-97762060D01*
X155021280Y-100601780D02*
X154873960Y-97777300D01*
X155130500Y-100599240D02*
X154937460Y-97767140D01*
X155216860Y-100586540D02*
X154993340Y-97769680D01*
X155422600Y-100601780D02*
X155089860Y-97754440D01*
X155321000Y-100591620D02*
X155046680Y-97759520D01*
X155511500Y-100601780D02*
X155321000Y-97792540D01*
X155628340Y-100604320D02*
X155389580Y-97767140D01*
X155732480Y-100601780D02*
X155450540Y-97767140D01*
X155834080Y-100606860D02*
X155526740Y-97751900D01*
X155928060Y-100604320D02*
X155618180Y-98137980D01*
X156024580Y-100599240D02*
X155653740Y-98130360D01*
X156131260Y-100594160D02*
X155707080Y-98127820D01*
X156227780Y-100594160D02*
X155757880Y-98112580D01*
X156316680Y-100589080D02*
X155806140Y-98102420D01*
X156433520Y-100599240D02*
X155859480Y-98094800D01*
X157421580Y-100596700D02*
X157378400Y-98450400D01*
X157525720Y-100596700D02*
X157454600Y-98425000D01*
X157825440Y-100594160D02*
X157779720Y-97345500D01*
M02*
