G04 #@! TF.FileFunction,Copper,L1,Top,Signal*
%FSLAX46Y46*%
G04 Gerber Fmt 4.6, Leading zero omitted, Abs format (unit mm)*
G04 Created by KiCad (PCBNEW 4.0.7-e1-6374~58~ubuntu16.04.1) date Tue Aug 22 20:20:45 2017*
%MOMM*%
%LPD*%
G01*
G04 APERTURE LIST*
%ADD10C,0.100000*%
%ADD11R,0.600000X0.400000*%
%ADD12R,0.500000X0.600000*%
%ADD13R,0.600000X0.500000*%
%ADD14R,0.400000X0.600000*%
%ADD15R,0.430000X0.280000*%
%ADD16R,3.000000X1.300000*%
%ADD17C,2.540000*%
%ADD18R,0.750000X0.800000*%
%ADD19R,0.280000X0.430000*%
%ADD20R,0.900000X0.500000*%
%ADD21R,0.350000X1.000000*%
%ADD22R,0.300000X0.600000*%
%ADD23R,0.300000X0.700000*%
%ADD24R,2.169160X0.254000*%
%ADD25R,5.207000X0.254000*%
%ADD26R,2.425700X0.254000*%
%ADD27R,0.127000X1.371600*%
%ADD28R,0.381000X1.371600*%
%ADD29R,0.127000X1.000000*%
%ADD30R,0.058000X0.086000*%
%ADD31R,0.635000X1.000000*%
%ADD32R,0.381000X1.000000*%
%ADD33R,0.203200X1.000000*%
%ADD34R,14.923287X0.254000*%
%ADD35C,0.355600*%
%ADD36C,0.254000*%
%ADD37C,0.127000*%
%ADD38C,0.508000*%
G04 APERTURE END LIST*
D10*
D11*
X143002000Y-93022000D03*
X143002000Y-93922000D03*
D12*
X144526000Y-92752000D03*
X144526000Y-91652000D03*
D13*
X140378000Y-90678000D03*
X141478000Y-90678000D03*
X138642000Y-87122000D03*
X139742000Y-87122000D03*
D12*
X152019000Y-94276000D03*
X152019000Y-93176000D03*
X146050000Y-88942000D03*
X146050000Y-87842000D03*
D14*
X146870000Y-89916000D03*
X147770000Y-89916000D03*
D15*
X140970000Y-89414000D03*
X140970000Y-88894000D03*
D16*
X139702540Y-82042000D03*
D17*
X155511500Y-90424000D03*
D16*
X156212540Y-82042000D03*
D12*
X145288000Y-88942000D03*
X145288000Y-87842000D03*
X147066000Y-88942000D03*
X147066000Y-87842000D03*
X147828000Y-88942000D03*
X147828000Y-87842000D03*
D18*
X155194000Y-87872000D03*
X155194000Y-86372000D03*
D12*
X139700000Y-93514000D03*
X139700000Y-92414000D03*
X140462000Y-93514000D03*
X140462000Y-92414000D03*
X141224000Y-93514000D03*
X141224000Y-92414000D03*
X142748000Y-91736000D03*
X142748000Y-90636000D03*
D13*
X155236000Y-84836000D03*
X154136000Y-84836000D03*
X155236000Y-84074000D03*
X154136000Y-84074000D03*
D12*
X143510000Y-91736000D03*
X143510000Y-90636000D03*
X145288000Y-92752000D03*
X145288000Y-91652000D03*
X146050000Y-92752000D03*
X146050000Y-91652000D03*
X150495000Y-94276000D03*
X150495000Y-93176000D03*
X151257000Y-94276000D03*
X151257000Y-93176000D03*
X151892000Y-91736000D03*
X151892000Y-90636000D03*
X152654000Y-91736000D03*
X152654000Y-90636000D03*
X156337000Y-93430000D03*
X156337000Y-94530000D03*
X155575000Y-93430000D03*
X155575000Y-94530000D03*
X157099000Y-93430000D03*
X157099000Y-94530000D03*
D15*
X142240000Y-87890000D03*
X142240000Y-87370000D03*
D19*
X157613000Y-96139000D03*
X157093000Y-96139000D03*
D14*
X145346000Y-89916000D03*
X146246000Y-89916000D03*
D20*
X157226000Y-87884000D03*
X157226000Y-86384000D03*
X153098500Y-87872000D03*
X153098500Y-86372000D03*
D15*
X138684000Y-89414000D03*
X138684000Y-88894000D03*
X139446000Y-89414000D03*
X139446000Y-88894000D03*
X140208000Y-89414000D03*
X140208000Y-88894000D03*
D11*
X153924000Y-94557000D03*
X153924000Y-93657000D03*
D14*
X151834000Y-89662000D03*
X150934000Y-89662000D03*
D19*
X139452000Y-85344000D03*
X138932000Y-85344000D03*
D21*
X153740492Y-80258000D03*
D22*
X151865492Y-83058000D03*
D23*
X151565492Y-79993000D03*
X152765492Y-79993000D03*
D22*
X152465492Y-83058000D03*
D23*
X152165492Y-79993000D03*
X150965492Y-79993000D03*
X150365492Y-79993000D03*
X149765492Y-79993000D03*
X149165492Y-79993000D03*
X148565492Y-79993000D03*
X147965492Y-79993000D03*
X147365492Y-79993000D03*
X146765492Y-79993000D03*
X146165492Y-79993000D03*
X145565492Y-79993000D03*
X144965492Y-79993000D03*
X144365492Y-79993000D03*
X143765492Y-79993000D03*
X143165492Y-79993000D03*
D22*
X151265492Y-83058000D03*
X150665492Y-83058000D03*
X150065492Y-83058000D03*
X149465492Y-83058000D03*
X148865492Y-83058000D03*
X148265492Y-83058000D03*
X147665492Y-83058000D03*
X147065492Y-83058000D03*
X146465492Y-83058000D03*
X145865492Y-83058000D03*
X145265492Y-83058000D03*
X144665492Y-83058000D03*
X144065492Y-83058000D03*
X143465492Y-83058000D03*
D21*
X142195492Y-80258000D03*
D24*
X150649940Y-98094800D03*
D25*
X146812000Y-98094800D03*
D24*
X154815540Y-98094800D03*
D26*
X141300200Y-98094800D03*
D27*
X142450820Y-97510600D03*
D28*
X140271500Y-97510600D03*
D27*
X146311620Y-97510600D03*
X149623780Y-97510600D03*
X151671020Y-97510600D03*
X144246600Y-97536000D03*
X155836620Y-97505520D03*
X153781760Y-97505520D03*
D29*
X152693370Y-97330260D03*
X152439116Y-97332800D03*
X149367748Y-97332800D03*
X149113494Y-97332800D03*
X148859240Y-97332800D03*
X148604986Y-97332800D03*
X148350732Y-97332800D03*
X148096478Y-97332800D03*
X147842224Y-97332800D03*
X147587970Y-97332800D03*
X147333716Y-97332800D03*
X147079462Y-97332800D03*
X146824700Y-97332800D03*
X146569430Y-97332800D03*
X143981424Y-97332800D03*
X143726916Y-97332800D03*
X143472662Y-97332800D03*
X143218408Y-97332800D03*
X142964154Y-97332800D03*
X142709900Y-97332800D03*
X157784800Y-97332800D03*
X152947624Y-97330260D03*
X152184862Y-97332800D03*
X151930354Y-97332800D03*
D30*
X138125200Y-100596700D03*
X138225200Y-100596700D03*
X138325200Y-100596700D03*
X138425200Y-100596700D03*
X138525200Y-100596700D03*
X138625200Y-100596700D03*
X138725200Y-100596700D03*
X138825200Y-100596700D03*
X138925200Y-100596700D03*
X139025200Y-100596700D03*
X139125200Y-100596700D03*
X139225200Y-100596700D03*
X139325200Y-100596700D03*
X139425200Y-100596700D03*
X139525200Y-100596700D03*
X139625200Y-100596700D03*
X139725200Y-100596700D03*
X139825200Y-100596700D03*
X139925200Y-100596700D03*
X140025200Y-100596700D03*
X140125200Y-100596700D03*
X140225200Y-100596700D03*
X140325200Y-100596700D03*
X140425200Y-100596700D03*
X140525200Y-100596700D03*
X140625200Y-100596700D03*
X140725200Y-100596700D03*
X140825200Y-100596700D03*
X140925200Y-100596700D03*
X141025200Y-100596700D03*
X141125200Y-100596700D03*
X141225200Y-100596700D03*
X141325200Y-100596700D03*
X141425200Y-100596700D03*
X141525200Y-100596700D03*
X141625200Y-100596700D03*
X141725200Y-100596700D03*
X141825200Y-100596700D03*
X141925200Y-100596700D03*
X142025200Y-100596700D03*
X142125200Y-100596700D03*
X142225200Y-100596700D03*
X142325200Y-100596700D03*
X142425200Y-100596700D03*
X142525200Y-100596700D03*
X142625200Y-100596700D03*
X142725200Y-100596700D03*
X142825200Y-100596700D03*
X142925200Y-100596700D03*
X143025200Y-100596700D03*
X143125200Y-100596700D03*
X143225200Y-100596700D03*
X143325200Y-100596700D03*
X143425200Y-100596700D03*
X143525200Y-100596700D03*
X143625200Y-100596700D03*
X143725200Y-100596700D03*
X143825200Y-100596700D03*
X143925200Y-100596700D03*
X144025200Y-100596700D03*
X144125200Y-100596700D03*
X144225200Y-100596700D03*
X144325200Y-100596700D03*
X144425200Y-100596700D03*
X144525200Y-100596700D03*
X144625200Y-100596700D03*
X144725200Y-100596700D03*
X144825200Y-100596700D03*
X144925200Y-100596700D03*
X145025200Y-100596700D03*
X145125200Y-100596700D03*
X145225200Y-100596700D03*
X145325200Y-100596700D03*
X145425200Y-100596700D03*
X145525200Y-100596700D03*
X145625200Y-100596700D03*
X145725200Y-100596700D03*
X145825200Y-100596700D03*
X145925200Y-100596700D03*
X146025200Y-100596700D03*
X146125200Y-100596700D03*
X146225200Y-100596700D03*
X146325200Y-100596700D03*
X146425200Y-100596700D03*
X146525200Y-100596700D03*
X146625200Y-100596700D03*
X146725200Y-100596700D03*
X146825200Y-100596700D03*
X146925200Y-100596700D03*
X147025200Y-100596700D03*
X147125200Y-100596700D03*
X147225200Y-100596700D03*
X147325200Y-100596700D03*
X147425200Y-100596700D03*
X147525200Y-100596700D03*
X147625200Y-100596700D03*
X147725200Y-100596700D03*
X147825200Y-100596700D03*
X147925200Y-100596700D03*
X148025200Y-100596700D03*
X148125200Y-100596700D03*
X148225200Y-100596700D03*
X148325200Y-100596700D03*
X148425200Y-100596700D03*
X148525200Y-100596700D03*
X148625200Y-100596700D03*
X148725200Y-100596700D03*
X148825200Y-100596700D03*
X148925200Y-100596700D03*
X149025200Y-100596700D03*
X149125200Y-100596700D03*
X149225200Y-100596700D03*
X149325200Y-100596700D03*
X149425200Y-100596700D03*
X149525200Y-100596700D03*
X149625200Y-100596700D03*
X149725200Y-100596700D03*
X149825200Y-100596700D03*
X149925200Y-100596700D03*
X150025200Y-100596700D03*
X150125200Y-100596700D03*
X150225200Y-100596700D03*
X150325200Y-100596700D03*
X150425200Y-100596700D03*
X150525200Y-100596700D03*
X150625200Y-100596700D03*
X150725200Y-100596700D03*
X150825200Y-100596700D03*
X150925200Y-100596700D03*
X151025200Y-100596700D03*
X151125200Y-100596700D03*
X151225200Y-100596700D03*
X151325200Y-100596700D03*
X151425200Y-100596700D03*
X151525200Y-100596700D03*
X151625200Y-100596700D03*
X151725200Y-100596700D03*
X151825200Y-100596700D03*
X151925200Y-100596700D03*
X152025200Y-100596700D03*
X152125200Y-100596700D03*
X152225200Y-100596700D03*
X152325200Y-100596700D03*
X152425200Y-100596700D03*
X152525200Y-100596700D03*
X152625200Y-100596700D03*
X152725200Y-100596700D03*
X152825200Y-100596700D03*
X152925200Y-100596700D03*
X153025200Y-100596700D03*
X153125200Y-100596700D03*
X153225200Y-100596700D03*
X153325200Y-100596700D03*
X153425200Y-100596700D03*
X153525200Y-100596700D03*
X153625200Y-100596700D03*
X153725200Y-100596700D03*
X153825200Y-100596700D03*
X153925200Y-100596700D03*
X154025200Y-100596700D03*
X154125200Y-100596700D03*
X154225200Y-100596700D03*
X154325200Y-100596700D03*
X154425200Y-100596700D03*
X154525200Y-100596700D03*
X154625200Y-100596700D03*
X154725200Y-100596700D03*
X154825200Y-100596700D03*
X154925200Y-100596700D03*
X155025200Y-100596700D03*
X155125200Y-100596700D03*
X155225200Y-100596700D03*
X155325200Y-100596700D03*
X155425200Y-100596700D03*
X155525200Y-100596700D03*
X155625200Y-100596700D03*
X155725200Y-100596700D03*
X155825200Y-100596700D03*
X155925200Y-100596700D03*
X156025200Y-100596700D03*
X156125200Y-100596700D03*
X156225200Y-100596700D03*
X156325200Y-100596700D03*
X156425200Y-100596700D03*
X156525200Y-100596700D03*
X156625200Y-100596700D03*
X156725200Y-100596700D03*
X156825200Y-100596700D03*
X156925200Y-100596700D03*
X157025200Y-100596700D03*
X157125200Y-100596700D03*
X157225200Y-100596700D03*
X157325200Y-100596700D03*
X157425200Y-100596700D03*
X157525200Y-100596700D03*
X157625200Y-100596700D03*
X157725200Y-100596700D03*
X157825200Y-100596700D03*
D31*
X145275300Y-97332800D03*
X150644860Y-97330260D03*
D32*
X150009860Y-97332800D03*
X151279860Y-97332800D03*
D31*
X154802840Y-97332800D03*
D32*
X154165300Y-97330260D03*
X155437840Y-97332800D03*
X144640300Y-97332800D03*
X145910300Y-97332800D03*
X142049500Y-97332800D03*
X140779500Y-97332800D03*
D31*
X141414500Y-97332800D03*
D29*
X138163300Y-97332800D03*
D33*
X138457940Y-97332800D03*
X138790680Y-97332800D03*
D29*
X139090400Y-97332800D03*
X139356338Y-97332800D03*
X139623800Y-97332800D03*
X139890246Y-97332800D03*
D34*
X150088600Y-98478340D03*
D30*
X154425200Y-100596700D03*
D35*
X140970000Y-95631000D03*
X143002000Y-94742000D03*
X151257000Y-94830000D03*
X152527000Y-95885000D03*
X157480000Y-83439000D03*
X156972000Y-83439000D03*
X156464000Y-83439000D03*
X155956000Y-83439000D03*
X155448000Y-83439000D03*
X154813000Y-83439000D03*
X153416000Y-93091000D03*
X154802840Y-96309362D03*
X154740802Y-84074000D03*
X154740802Y-84836000D03*
X145275300Y-96012000D03*
X157480000Y-82931000D03*
X156972000Y-82931000D03*
X156464000Y-82931000D03*
X155956000Y-82931000D03*
X155448000Y-82931000D03*
X154813000Y-82931000D03*
X143002000Y-92456000D03*
X140208000Y-95504000D03*
X141372119Y-88978487D03*
X148717000Y-84201000D03*
X148717000Y-81788000D03*
X149090107Y-82162516D03*
X149098000Y-83820000D03*
X147083681Y-83710681D03*
X147066000Y-81788000D03*
X147447000Y-84201000D03*
X147447000Y-82169000D03*
X145554690Y-83738651D03*
X145542000Y-81661000D03*
X145923000Y-82042000D03*
X146050000Y-84201000D03*
X144018000Y-83693000D03*
X144018000Y-81661000D03*
X144399000Y-82042000D03*
X144399000Y-84201000D03*
X141909810Y-90917195D03*
X141536972Y-95504000D03*
X156210000Y-97028000D03*
X155437840Y-96436362D03*
X151130000Y-82423000D03*
X151003000Y-84074000D03*
X150495000Y-83820000D03*
X150241000Y-82423000D03*
X141224000Y-86106000D03*
X151892000Y-85598000D03*
X138430000Y-85852000D03*
X138155443Y-96252296D03*
X138557000Y-87757000D03*
X138557000Y-96520000D03*
X142875000Y-81280000D03*
X143002000Y-82423000D03*
X144907000Y-83693000D03*
X146431000Y-83693000D03*
X143383000Y-80772000D03*
X145415000Y-80772000D03*
X157099000Y-92837000D03*
X155575000Y-92837000D03*
X156337000Y-92837000D03*
X140182600Y-91922600D03*
X140101665Y-92929869D03*
X139700000Y-91922600D03*
X144526000Y-90678000D03*
X143976000Y-90636000D03*
X146812000Y-80772000D03*
X145935690Y-92147198D03*
X156718000Y-96393000D03*
X140970000Y-83439000D03*
X140335000Y-83439000D03*
X139700000Y-83439000D03*
X139065000Y-83439000D03*
X138430000Y-83439000D03*
X152654000Y-91131198D03*
X151892000Y-91131198D03*
X151892000Y-93671198D03*
X151384000Y-93671198D03*
X150622000Y-93671198D03*
X153670000Y-84074000D03*
X153670000Y-84836000D03*
X145288000Y-92147198D03*
X144526000Y-92147198D03*
X139446000Y-84836000D03*
X139246802Y-87122000D03*
X140970000Y-82931000D03*
X140335000Y-82931000D03*
X139700000Y-82931000D03*
X139065000Y-82931000D03*
X138430000Y-82931000D03*
D36*
X140970000Y-95631000D02*
X141414500Y-96075500D01*
X140462000Y-95123000D02*
X140970000Y-95631000D01*
D37*
X143472662Y-95250000D02*
X143472662Y-95212662D01*
X143472662Y-95212662D02*
X143002000Y-94742000D01*
D36*
X141414500Y-96075500D02*
X141414500Y-97332800D01*
D37*
X143472662Y-97332800D02*
X143472662Y-95250000D01*
D36*
X151257000Y-94276000D02*
X151257000Y-94830000D01*
D37*
X152184862Y-96227138D02*
X152527000Y-95885000D01*
X152184862Y-97332800D02*
X152184862Y-96227138D01*
D38*
X157480000Y-83439000D02*
X157480000Y-82931000D01*
X155448000Y-83439000D02*
X154813000Y-83439000D01*
X156464000Y-83439000D02*
X155956000Y-83439000D01*
X157480000Y-83439000D02*
X156972000Y-83439000D01*
X156464000Y-83439000D02*
X156972000Y-83439000D01*
X155448000Y-83439000D02*
X155956000Y-83439000D01*
X154813000Y-82931000D02*
X154813000Y-83439000D01*
X153797000Y-93472000D02*
X153416000Y-93091000D01*
D36*
X150644860Y-96139000D02*
X150644860Y-95862140D01*
X150644860Y-97330260D02*
X150644860Y-96139000D01*
X156337000Y-94530000D02*
X156337000Y-94775202D01*
X156337000Y-94775202D02*
X154802840Y-96309362D01*
X154802840Y-96309362D02*
X154802840Y-96578800D01*
X154802840Y-96578800D02*
X154802840Y-97332800D01*
D37*
X155236000Y-84074000D02*
X154740802Y-84074000D01*
X155236000Y-84836000D02*
X154740802Y-84836000D01*
D36*
X151257000Y-94830000D02*
X150644860Y-95442140D01*
X150644860Y-95442140D02*
X150644860Y-95862140D01*
X145275300Y-96012000D02*
X145275300Y-94488000D01*
X145275300Y-94488000D02*
X145275300Y-94221300D01*
X145288000Y-92752000D02*
X145288000Y-94475300D01*
X145288000Y-94475300D02*
X145275300Y-94488000D01*
D38*
X143002000Y-93022000D02*
X143002000Y-92456000D01*
X156972000Y-82931000D02*
X157480000Y-82931000D01*
X155956000Y-82931000D02*
X156464000Y-82931000D01*
X154813000Y-82931000D02*
X155448000Y-82931000D01*
D36*
X145275300Y-97332800D02*
X145275300Y-96012000D01*
X140462000Y-93641000D02*
X140462000Y-95123000D01*
D38*
X156464000Y-82931000D02*
X156972000Y-82931000D01*
X155448000Y-82931000D02*
X155956000Y-82931000D01*
X156212540Y-82042000D02*
X155702000Y-82042000D01*
X155702000Y-82042000D02*
X154813000Y-82931000D01*
D36*
X144640300Y-93420300D02*
X144526000Y-93306000D01*
X144526000Y-93306000D02*
X144526000Y-92752000D01*
X154165300Y-96576260D02*
X154165300Y-97330260D01*
X155575000Y-94530000D02*
X155575000Y-94915253D01*
X155575000Y-94915253D02*
X154165300Y-96324953D01*
X154165300Y-96324953D02*
X154165300Y-96576260D01*
X139700000Y-94996000D02*
X140208000Y-95504000D01*
X140208000Y-95504000D02*
X140779500Y-96075500D01*
X144640300Y-93420300D02*
X144640300Y-97332800D01*
X150025111Y-95523059D02*
X150495000Y-95053170D01*
X150495000Y-94830000D02*
X150495000Y-94276000D01*
X150009860Y-97332800D02*
X150025111Y-97317549D01*
X150025111Y-97317549D02*
X150025111Y-95523059D01*
X150495000Y-95053170D02*
X150495000Y-94830000D01*
X141120672Y-88978487D02*
X141372119Y-88978487D01*
X140970000Y-88894000D02*
X141054487Y-88978487D01*
X141054487Y-88978487D02*
X141120672Y-88978487D01*
X138684000Y-88894000D02*
X139446000Y-88894000D01*
X139446000Y-88894000D02*
X140208000Y-88894000D01*
X140208000Y-88894000D02*
X140970000Y-88894000D01*
X140779500Y-96266000D02*
X140779500Y-97332800D01*
X140779500Y-96075500D02*
X140779500Y-96266000D01*
X139700000Y-93641000D02*
X139700000Y-94996000D01*
D37*
X152908000Y-80612508D02*
X152908000Y-85471000D01*
X152908000Y-85471000D02*
X156313000Y-85471000D01*
X152765492Y-80470000D02*
X152908000Y-80612508D01*
X152765492Y-79993000D02*
X152765492Y-80470000D01*
X156313000Y-85471000D02*
X157226000Y-86384000D01*
X157123000Y-86487000D02*
X157226000Y-86384000D01*
X152400000Y-83273492D02*
X152400000Y-86796500D01*
X152400000Y-86796500D02*
X153098500Y-87495000D01*
X153098500Y-87495000D02*
X153098500Y-87872000D01*
X152465492Y-83058000D02*
X152465492Y-83208000D01*
X152465492Y-83208000D02*
X152400000Y-83273492D01*
X144365492Y-79993000D02*
X144365492Y-80470000D01*
X144365492Y-80470000D02*
X143174492Y-81661000D01*
X143174492Y-81661000D02*
X142568396Y-81661000D01*
X143838396Y-86487000D02*
X146529898Y-86487000D01*
X146529898Y-86487000D02*
X147320000Y-87277102D01*
X142362990Y-85011594D02*
X143838396Y-86487000D01*
X142362990Y-81866406D02*
X142362990Y-85011594D01*
X142568396Y-81661000D02*
X142362990Y-81866406D01*
X147066000Y-87842000D02*
X147066000Y-87792000D01*
X147066000Y-87792000D02*
X147320000Y-87538000D01*
X147320000Y-87538000D02*
X147320000Y-87277102D01*
X148717000Y-81788000D02*
X148082000Y-81788000D01*
X148082000Y-81788000D02*
X147965492Y-81671492D01*
X147965492Y-81671492D02*
X147965492Y-79993000D01*
X150240956Y-86613956D02*
X148717000Y-85090000D01*
X148717000Y-85090000D02*
X148717000Y-84201000D01*
X150240956Y-86740956D02*
X150240956Y-86613956D01*
X149113494Y-97332800D02*
X149113494Y-95054886D01*
X150240956Y-91122544D02*
X150240956Y-86740956D01*
X149479078Y-91884422D02*
X150240956Y-91122544D01*
X149479078Y-94689302D02*
X149479078Y-91884422D01*
X149113494Y-95054886D02*
X149479078Y-94689302D01*
X148410976Y-82162516D02*
X148838660Y-82162516D01*
X148838660Y-82162516D02*
X149090107Y-82162516D01*
X147665492Y-83058000D02*
X147665492Y-82908000D01*
X147665492Y-82908000D02*
X148410976Y-82162516D01*
X149098000Y-85090000D02*
X149098000Y-83820000D01*
X150494967Y-86486967D02*
X149098000Y-85090000D01*
X150494967Y-91313033D02*
X150494967Y-86486967D01*
X149733088Y-92074912D02*
X150494967Y-91313033D01*
X149733088Y-94794516D02*
X149733088Y-92074912D01*
X149367621Y-95159983D02*
X149733088Y-94794516D01*
X149367621Y-96705673D02*
X149367621Y-95159983D01*
X149367748Y-96705800D02*
X149367621Y-96705673D01*
X149367748Y-97332800D02*
X149367748Y-96705800D01*
X147665492Y-82905561D02*
X147665492Y-83058000D01*
X146905882Y-84204970D02*
X146905882Y-83888480D01*
X148604986Y-97332800D02*
X148604986Y-94717962D01*
X147270214Y-84569302D02*
X146905882Y-84204970D01*
X148971058Y-91641321D02*
X149732934Y-90879445D01*
X149732934Y-90879445D02*
X149732934Y-86994934D01*
X147307302Y-84569302D02*
X147270214Y-84569302D01*
X148971058Y-94351890D02*
X148971058Y-91641321D01*
X148604986Y-94717962D02*
X148971058Y-94351890D01*
X146905882Y-83888480D02*
X147083681Y-83710681D01*
X149732934Y-86994934D02*
X147307302Y-84569302D01*
X147066000Y-81788000D02*
X147365492Y-81488508D01*
X147365492Y-81488508D02*
X147365492Y-79993000D01*
X147365492Y-81234508D02*
X147365492Y-79993000D01*
X147447000Y-82169000D02*
X146927492Y-82169000D01*
X146927492Y-82169000D02*
X146465492Y-82631000D01*
X147447000Y-84328000D02*
X147447000Y-84201000D01*
X149986945Y-86867945D02*
X147447000Y-84328000D01*
X149986945Y-86870498D02*
X149986945Y-86867945D01*
X148859240Y-94822933D02*
X149225068Y-94457105D01*
X149225068Y-94457105D02*
X149225068Y-91746536D01*
X149225068Y-91746536D02*
X149986945Y-90984659D01*
X149986945Y-90984659D02*
X149986945Y-86870498D01*
X148859240Y-97332800D02*
X148859240Y-94822933D01*
X146465492Y-82631000D02*
X146465492Y-83058000D01*
X145542000Y-81661000D02*
X145542000Y-81153000D01*
X145542000Y-81153000D02*
X146165492Y-80529508D01*
X146165492Y-80529508D02*
X146165492Y-79993000D01*
X145554690Y-84848690D02*
X145554690Y-83990098D01*
X145554690Y-83990098D02*
X145554690Y-83738651D01*
X146049989Y-85343989D02*
X145554690Y-84848690D01*
X146960765Y-85343989D02*
X146049989Y-85343989D01*
X148463038Y-91133341D02*
X149097989Y-90498391D01*
X149097989Y-90498391D02*
X149097989Y-87481213D01*
X148463038Y-94141460D02*
X148463038Y-91133341D01*
X148096478Y-94508020D02*
X148463038Y-94141460D01*
X149097989Y-87481213D02*
X146960765Y-85343989D01*
X148096478Y-97332800D02*
X148096478Y-94508020D01*
X145923000Y-82042000D02*
X145923000Y-83000492D01*
X145923000Y-83000492D02*
X145865492Y-83058000D01*
X148350732Y-97332800D02*
X148350732Y-94612991D01*
X149352000Y-90603605D02*
X149352000Y-87376000D01*
X148350732Y-94612991D02*
X148717048Y-94246675D01*
X148717048Y-94246675D02*
X148717048Y-91238556D01*
X148717048Y-91238556D02*
X149352000Y-90603605D01*
X149352000Y-87376000D02*
X147002500Y-85026500D01*
X147002500Y-85026500D02*
X146367500Y-85026500D01*
X146367500Y-85026500D02*
X146050000Y-84709000D01*
X146050000Y-84709000D02*
X146050000Y-84201000D01*
X144018000Y-81661000D02*
X144965492Y-80713508D01*
X144965492Y-80713508D02*
X144965492Y-79993000D01*
X147587970Y-97332800D02*
X147587970Y-94250873D01*
X147587970Y-94250873D02*
X147955017Y-93883826D01*
X147955017Y-93883826D02*
X147955018Y-90830604D01*
X147955018Y-90830604D02*
X148522491Y-90263132D01*
X148522491Y-90263132D02*
X148522491Y-87624164D01*
X148522491Y-87624164D02*
X146750338Y-85852011D01*
X146750338Y-85852011D02*
X145351511Y-85852011D01*
X145351511Y-85852011D02*
X144018000Y-84518500D01*
X144018000Y-84518500D02*
X144018000Y-83693000D01*
X144907000Y-80051492D02*
X144965492Y-79993000D01*
X145034000Y-80061000D02*
X144966000Y-79993000D01*
X144399000Y-82042000D02*
X144576799Y-81864201D01*
X144856201Y-81864201D02*
X145265492Y-82273492D01*
X144576799Y-81864201D02*
X144856201Y-81864201D01*
X145265492Y-82273492D02*
X145265492Y-83058000D01*
X146050000Y-85598000D02*
X145542000Y-85598000D01*
X145542000Y-85598000D02*
X144399000Y-84455000D01*
X144399000Y-84455000D02*
X144399000Y-84201000D01*
X148209028Y-90935819D02*
X148776502Y-90368346D01*
X146855552Y-85598000D02*
X146050000Y-85598000D01*
X148776502Y-87518950D02*
X146855552Y-85598000D01*
X148776502Y-90368346D02*
X148776502Y-87518950D01*
X148209027Y-94032578D02*
X148209028Y-90935819D01*
X147842224Y-97332800D02*
X147842224Y-94399381D01*
X147842224Y-94399381D02*
X148209027Y-94032578D01*
X145351500Y-82971992D02*
X145265492Y-83058000D01*
X146050000Y-85598000D02*
X146028224Y-85598000D01*
D36*
X141670615Y-90678000D02*
X141732011Y-90739396D01*
X141478000Y-90678000D02*
X141670615Y-90678000D01*
X141732011Y-90739396D02*
X141909810Y-90917195D01*
X142049500Y-96016528D02*
X142049500Y-96393000D01*
X156210000Y-97028000D02*
X156210000Y-98343722D01*
X156210000Y-98343722D02*
X156100782Y-98452940D01*
X151279860Y-97332800D02*
X151279860Y-95569140D01*
X151279860Y-95569140D02*
X152019000Y-94830000D01*
X155437840Y-96436362D02*
X155437840Y-97332800D01*
X152019000Y-94830000D02*
X152019000Y-94276000D01*
X155437840Y-96436362D02*
X157099000Y-94775202D01*
X157099000Y-94775202D02*
X157099000Y-94530000D01*
X145910300Y-97332800D02*
X145910300Y-93445700D01*
X145910300Y-93445700D02*
X146050000Y-93306000D01*
X146050000Y-93306000D02*
X146050000Y-92752000D01*
X142049500Y-96393000D02*
X142049500Y-96578800D01*
X142049500Y-96578800D02*
X142049500Y-97332800D01*
X141224000Y-95191028D02*
X142049500Y-96016528D01*
X141224000Y-93641000D02*
X141224000Y-95191028D01*
D37*
X151130000Y-82423000D02*
X149165492Y-80458492D01*
X149165492Y-80458492D02*
X149165492Y-79993000D01*
X151002989Y-84708989D02*
X151002989Y-84074011D01*
X151002989Y-84074011D02*
X151003000Y-84074000D01*
X151002989Y-84708989D02*
X151002989Y-88138000D01*
X151002989Y-88138000D02*
X151002989Y-88286489D01*
X151834000Y-89662000D02*
X151834000Y-89562000D01*
X151834000Y-89562000D02*
X151002989Y-88730989D01*
X151002989Y-88730989D02*
X151002989Y-88138000D01*
X149606000Y-82423000D02*
X150241000Y-82423000D01*
X150495000Y-83820000D02*
X150495000Y-84837508D01*
X150495000Y-84837508D02*
X150748978Y-85091486D01*
X148865492Y-82908000D02*
X149350492Y-82423000D01*
X149350492Y-82423000D02*
X149606000Y-82423000D01*
X148865492Y-83058000D02*
X148865492Y-82908000D01*
X150748978Y-89049978D02*
X150748978Y-85091486D01*
X150934000Y-89235000D02*
X150748978Y-89049978D01*
X150934000Y-89662000D02*
X150934000Y-89235000D01*
X148865492Y-83058000D02*
X148865492Y-83208000D01*
X142240000Y-87370000D02*
X142240000Y-87103000D01*
X142240000Y-87103000D02*
X141243000Y-86106000D01*
X141243000Y-86106000D02*
X141224000Y-86106000D01*
X142165000Y-87370000D02*
X142240000Y-87370000D01*
X151892000Y-88646000D02*
X151892000Y-85598000D01*
X152400000Y-89154000D02*
X151892000Y-88646000D01*
X153162000Y-89916000D02*
X152400000Y-89154000D01*
X153162000Y-92067024D02*
X153162000Y-89916000D01*
X154880488Y-93785512D02*
X153162000Y-92067024D01*
X152947624Y-96734376D02*
X154880488Y-94801512D01*
X154880488Y-94801512D02*
X154880488Y-93785512D01*
X152947624Y-96813624D02*
X152947624Y-96734376D01*
X152947624Y-97330260D02*
X152947624Y-96813624D01*
X152947624Y-96813624D02*
X152947380Y-96813380D01*
X138430000Y-85852000D02*
X138938000Y-85344000D01*
X138155443Y-96503743D02*
X138155443Y-96252296D01*
X138155443Y-97197943D02*
X138155443Y-96503743D01*
X138163300Y-97205800D02*
X138155443Y-97197943D01*
X143510000Y-81915000D02*
X144065492Y-82470492D01*
X144065492Y-82470492D02*
X144065492Y-83058000D01*
X142673620Y-81915000D02*
X143510000Y-81915000D01*
X143943604Y-86233000D02*
X146635106Y-86233000D01*
X146635106Y-86233000D02*
X147574000Y-87171894D01*
X142616990Y-84906386D02*
X143943604Y-86233000D01*
X142616990Y-81971630D02*
X142616990Y-84906386D01*
X142673620Y-81915000D02*
X142616990Y-81971630D01*
X147828000Y-87792000D02*
X147574000Y-87538000D01*
X147828000Y-87842000D02*
X147828000Y-87792000D01*
X147574000Y-87538000D02*
X147574000Y-87171894D01*
X142511499Y-91972501D02*
X142748000Y-91736000D01*
X143218408Y-95503496D02*
X143217396Y-95503496D01*
X142511499Y-94797599D02*
X142511499Y-91972501D01*
X143217396Y-95503496D02*
X142511499Y-94797599D01*
X143218408Y-96705800D02*
X143218408Y-95503496D01*
X143218408Y-97332800D02*
X143218408Y-96705800D01*
X143218408Y-96705800D02*
X143218652Y-96705556D01*
X143510000Y-92335368D02*
X143510000Y-91482000D01*
X143981424Y-97332800D02*
X143981424Y-94197424D01*
X143981424Y-94197424D02*
X143510000Y-93726000D01*
X143510000Y-93726000D02*
X143510000Y-92335368D01*
X151892000Y-92202000D02*
X151892000Y-92163000D01*
X152713512Y-93023512D02*
X151892000Y-92202000D01*
X151930354Y-95741422D02*
X152713512Y-94958264D01*
X151930354Y-97332800D02*
X151930354Y-95741422D01*
X152713512Y-94958264D02*
X152713512Y-93023512D01*
X151892000Y-92163000D02*
X151892000Y-91736000D01*
X152439116Y-96705800D02*
X152439116Y-97332800D01*
X152971489Y-95970287D02*
X152439116Y-96502660D01*
X152439116Y-96502660D02*
X152439116Y-96705800D01*
X152971489Y-92480489D02*
X152971489Y-95970287D01*
X152654000Y-91736000D02*
X152654000Y-92163000D01*
X152654000Y-92163000D02*
X152971489Y-92480489D01*
X138557000Y-87757000D02*
X138557000Y-87207000D01*
X138557000Y-87207000D02*
X138642000Y-87122000D01*
X138457940Y-97332800D02*
X138457940Y-96619060D01*
X138457940Y-96619060D02*
X138557000Y-96520000D01*
X145288000Y-87842000D02*
X145288000Y-87415000D01*
X145288000Y-87415000D02*
X144868021Y-86995021D01*
X144868021Y-86995021D02*
X143330416Y-86995020D01*
X143330416Y-86995020D02*
X141605000Y-85269604D01*
X141605000Y-85269604D02*
X141605000Y-81661000D01*
X141605000Y-81661000D02*
X142317499Y-80948501D01*
X142317499Y-80948501D02*
X142687499Y-80948501D01*
X142687499Y-80948501D02*
X143166000Y-80470000D01*
X143166000Y-80470000D02*
X143166000Y-79993000D01*
X143002000Y-82423000D02*
X143257492Y-82423000D01*
X143257492Y-82423000D02*
X143465492Y-82631000D01*
X143465492Y-82631000D02*
X143465492Y-83058000D01*
X142292604Y-81407000D02*
X142419604Y-81280000D01*
X142419604Y-81280000D02*
X142875000Y-81280000D01*
X143465492Y-83058000D02*
X143465492Y-82759492D01*
X146050000Y-87842000D02*
X146050000Y-87415000D01*
X141859000Y-81840604D02*
X142165612Y-81534008D01*
X146050000Y-87415000D02*
X145376011Y-86741011D01*
X145376011Y-86741011D02*
X143435615Y-86741011D01*
X143435615Y-86741011D02*
X141859000Y-85164396D01*
X141859000Y-85164396D02*
X141859000Y-81840604D01*
X142165612Y-81534008D02*
X142292604Y-81407000D01*
X147333462Y-94146158D02*
X147333716Y-94146412D01*
X147333716Y-94146412D02*
X147333716Y-97332800D01*
X147770000Y-89916000D02*
X147770000Y-90343000D01*
X147770000Y-90343000D02*
X147701007Y-90411993D01*
X147701007Y-90411993D02*
X147701007Y-93778613D01*
X147701007Y-93778613D02*
X147333462Y-94146158D01*
X147770000Y-89916000D02*
X147770000Y-89000000D01*
X147770000Y-89000000D02*
X147828000Y-88942000D01*
X147079208Y-94041188D02*
X147079462Y-94041442D01*
X147079462Y-94041442D02*
X147079462Y-97332800D01*
X146870000Y-89916000D02*
X146870000Y-89138000D01*
X146870000Y-89138000D02*
X147066000Y-88942000D01*
X146870000Y-89916000D02*
X146870000Y-90343000D01*
X146870000Y-90343000D02*
X147446998Y-90919998D01*
X147446998Y-90919998D02*
X147446998Y-91427998D01*
X147446998Y-91588778D02*
X147446998Y-92202000D01*
X147446998Y-92202000D02*
X147446998Y-93673382D01*
X147446998Y-91427998D02*
X147446998Y-92202000D01*
X147446998Y-93673398D02*
X147446990Y-93673390D01*
X147446990Y-93673390D02*
X147079208Y-94041188D01*
X147446998Y-93673382D02*
X147446990Y-93673390D01*
X146824700Y-97332800D02*
X146824700Y-96705800D01*
X146824700Y-96705800D02*
X146825208Y-96705292D01*
X146825208Y-96705292D02*
X146825208Y-93892396D01*
X146050000Y-88942000D02*
X146050000Y-89720000D01*
X146050000Y-89720000D02*
X146246000Y-89916000D01*
X146825208Y-93892396D02*
X147066000Y-93651604D01*
X147066000Y-93651604D02*
X147066000Y-91163000D01*
X147066000Y-91163000D02*
X146246000Y-90343000D01*
X146246000Y-90343000D02*
X146246000Y-89916000D01*
X145346000Y-90016000D02*
X145346000Y-89916000D01*
X146811989Y-91481989D02*
X145346000Y-90016000D01*
X146811989Y-93546391D02*
X146811989Y-91481989D01*
X146569430Y-93788950D02*
X146811989Y-93546391D01*
X146569430Y-97332800D02*
X146569430Y-93788950D01*
X145288000Y-88942000D02*
X145288000Y-89858000D01*
X145288000Y-89858000D02*
X145346000Y-89916000D01*
X157784800Y-97332800D02*
X157784800Y-96310800D01*
X157784800Y-96310800D02*
X157613000Y-96139000D01*
X141918512Y-94981229D02*
X142709900Y-95772617D01*
X141918512Y-92168512D02*
X141918512Y-94981229D01*
X140428000Y-90678000D02*
X141918512Y-92168512D01*
X142709900Y-96705800D02*
X142709900Y-97332800D01*
X140378000Y-90678000D02*
X140428000Y-90678000D01*
X142709900Y-95772617D02*
X142709900Y-96705800D01*
X142240000Y-88157000D02*
X142240000Y-87890000D01*
X142278112Y-88195112D02*
X142240000Y-88157000D01*
X142240000Y-94943492D02*
X142240000Y-91132093D01*
X142964154Y-97332800D02*
X142964154Y-95667646D01*
X142964154Y-95667646D02*
X142240000Y-94943492D01*
X142278112Y-91093981D02*
X142278112Y-88195112D01*
X142240000Y-91132093D02*
X142278112Y-91093981D01*
X157226000Y-87884000D02*
X157226000Y-88709500D01*
X157226000Y-88709500D02*
X155511500Y-90424000D01*
X155194000Y-90106500D02*
X155511500Y-90424000D01*
X157226000Y-87884000D02*
X155333000Y-87884000D01*
X155333000Y-87884000D02*
X155194000Y-87745000D01*
X155194000Y-86245000D02*
X153543000Y-86245000D01*
X153543000Y-86245000D02*
X153416000Y-86372000D01*
X155194000Y-86245000D02*
X154692000Y-86245000D01*
X142450820Y-96697800D02*
X142450820Y-97510600D01*
X142450820Y-95872762D02*
X142450820Y-96697800D01*
X141224000Y-92464000D02*
X141664501Y-92904501D01*
X141664501Y-95086443D02*
X142450820Y-95872762D01*
X141224000Y-92414000D02*
X141224000Y-92464000D01*
X141664501Y-92904501D02*
X141664501Y-95086443D01*
X146812000Y-80772000D02*
X146812000Y-80039508D01*
X146812000Y-80039508D02*
X146765492Y-79993000D01*
X145415000Y-80772000D02*
X145415000Y-80143492D01*
X145415000Y-80143492D02*
X145565492Y-79993000D01*
X143383000Y-80772000D02*
X143542622Y-80772000D01*
X143542622Y-80772000D02*
X143765492Y-80549130D01*
X143765492Y-80549130D02*
X143765492Y-79993000D01*
X144665492Y-83058000D02*
X144665492Y-83451492D01*
X144665492Y-83451492D02*
X144907000Y-83693000D01*
X147065492Y-83058000D02*
X147065492Y-83208000D01*
X147065492Y-83208000D02*
X146580492Y-83693000D01*
X146580492Y-83693000D02*
X146431000Y-83693000D01*
X157099000Y-93430000D02*
X157099000Y-92837000D01*
X155575000Y-93430000D02*
X155575000Y-92837000D01*
X156337000Y-93430000D02*
X156337000Y-92837000D01*
X140843000Y-91983000D02*
X140243000Y-91983000D01*
X140243000Y-91983000D02*
X140182600Y-91922600D01*
X141224000Y-92414000D02*
X141224000Y-92364000D01*
X141224000Y-92364000D02*
X140843000Y-91983000D01*
X140462000Y-92414000D02*
X140462000Y-92569534D01*
X140462000Y-92569534D02*
X140101665Y-92929869D01*
X139700000Y-92414000D02*
X139700000Y-91922600D01*
X142875000Y-91059000D02*
X144145000Y-91059000D01*
X144145000Y-91059000D02*
X144526000Y-90678000D01*
X142748000Y-90932000D02*
X142875000Y-91059000D01*
X142748000Y-90636000D02*
X142748000Y-90932000D01*
X155575000Y-93480000D02*
X155575000Y-93430000D01*
X155134499Y-94906726D02*
X155134499Y-93920501D01*
X153781760Y-96259465D02*
X155134499Y-94906726D01*
X155134499Y-93920501D02*
X155575000Y-93480000D01*
X153781760Y-97505520D02*
X153781760Y-96259465D01*
X144526000Y-91652000D02*
X144526000Y-91702000D01*
X144526000Y-91702000D02*
X144018000Y-92210000D01*
X144018000Y-92210000D02*
X144018000Y-93599000D01*
X144018000Y-93599000D02*
X144246600Y-93827600D01*
X144246600Y-93827600D02*
X144246600Y-97536000D01*
X146311620Y-97510600D02*
X146311620Y-93687536D01*
X149707600Y-95179228D02*
X150054499Y-94832329D01*
X149623780Y-96697800D02*
X149707600Y-96613980D01*
X149623780Y-97510600D02*
X149623780Y-96697800D01*
X149707600Y-96613980D02*
X149707600Y-95179228D01*
X146765492Y-80725492D02*
X146812000Y-80772000D01*
X145981802Y-92147198D02*
X145935690Y-92147198D01*
X146050000Y-91652000D02*
X146050000Y-92079000D01*
X146050000Y-92079000D02*
X145981802Y-92147198D01*
X144665492Y-83058000D02*
X144665492Y-83208000D01*
X140271500Y-97510600D02*
X140271500Y-97858202D01*
X140271500Y-97858202D02*
X140482698Y-98069400D01*
X140482698Y-98069400D02*
X141300200Y-98069400D01*
X150649940Y-98069400D02*
X151576662Y-98069400D01*
X151576662Y-98069400D02*
X151671020Y-97975042D01*
X151671020Y-97975042D02*
X151671020Y-97510600D01*
X157093000Y-96139000D02*
X156972000Y-96139000D01*
X156972000Y-96139000D02*
X156718000Y-96393000D01*
X155836620Y-97505520D02*
X155836620Y-96692720D01*
X155836620Y-96692720D02*
X157539501Y-94989839D01*
X157539501Y-94989839D02*
X157539501Y-93920501D01*
X150054499Y-93666501D02*
X150495000Y-93226000D01*
X150054499Y-94832329D02*
X150054499Y-93666501D01*
X150495000Y-93226000D02*
X150495000Y-93176000D01*
D38*
X140970000Y-83439000D02*
X140970000Y-82931000D01*
X139065000Y-83439000D02*
X138430000Y-83439000D01*
X140335000Y-83439000D02*
X139700000Y-83439000D01*
X140335000Y-83439000D02*
X140970000Y-83439000D01*
X139065000Y-83439000D02*
X139700000Y-83439000D01*
X138430000Y-82931000D02*
X138430000Y-83439000D01*
D37*
X143510000Y-90636000D02*
X143976000Y-90636000D01*
X152654000Y-90636000D02*
X152654000Y-91131198D01*
X151892000Y-90636000D02*
X151892000Y-91131198D01*
X152459501Y-93666501D02*
X152019000Y-93226000D01*
X152459501Y-94853050D02*
X152459501Y-93666501D01*
X151671020Y-95641531D02*
X152459501Y-94853050D01*
X152019000Y-93226000D02*
X152019000Y-93176000D01*
X151671020Y-97510600D02*
X151671020Y-95641531D01*
X152019000Y-93176000D02*
X152019000Y-93544198D01*
X152019000Y-93544198D02*
X151892000Y-93671198D01*
X151257000Y-93176000D02*
X151257000Y-93544198D01*
X151257000Y-93544198D02*
X151384000Y-93671198D01*
X150495000Y-93176000D02*
X150495000Y-93544198D01*
X150495000Y-93544198D02*
X150622000Y-93671198D01*
X157099000Y-93480000D02*
X157099000Y-93430000D01*
X155836620Y-97505520D02*
X155836620Y-96883220D01*
X157539501Y-93920501D02*
X157099000Y-93480000D01*
X146557978Y-93441178D02*
X146311620Y-93687536D01*
X146557978Y-92412426D02*
X146557978Y-93441178D01*
X146050000Y-91652000D02*
X146050000Y-91904448D01*
X146050000Y-91904448D02*
X146557978Y-92412426D01*
X143510000Y-90382000D02*
X143510000Y-90424000D01*
X154136000Y-84074000D02*
X153670000Y-84074000D01*
X154136000Y-84836000D02*
X153670000Y-84836000D01*
X145288000Y-91652000D02*
X145288000Y-92147198D01*
X144526000Y-91652000D02*
X144526000Y-92147198D01*
D38*
X139700000Y-82931000D02*
X140335000Y-82931000D01*
X139065000Y-82931000D02*
X139700000Y-82931000D01*
X138430000Y-82931000D02*
X139065000Y-82931000D01*
D37*
X139452000Y-85344000D02*
X139452000Y-84842000D01*
X139452000Y-84842000D02*
X139446000Y-84836000D01*
X139742000Y-87122000D02*
X139246802Y-87122000D01*
X141224000Y-92414000D02*
X141224000Y-92329000D01*
X139192000Y-92972000D02*
X139192000Y-95123000D01*
X139700000Y-92414000D02*
X139700000Y-92464000D01*
X139700000Y-92464000D02*
X139192000Y-92972000D01*
X140271500Y-97510600D02*
X140271500Y-96774000D01*
X140271500Y-96774000D02*
X140271500Y-96697800D01*
X139192000Y-95123000D02*
X140271500Y-96202500D01*
X140271500Y-96202500D02*
X140271500Y-96774000D01*
D38*
X140335000Y-82931000D02*
X140970000Y-82931000D01*
X139702540Y-82042000D02*
X139319000Y-82042000D01*
X139319000Y-82042000D02*
X138430000Y-82931000D01*
D37*
X139356338Y-97205800D02*
X139356338Y-96430338D01*
X138385473Y-93132751D02*
X138385473Y-90399527D01*
X139371000Y-89414000D02*
X139446000Y-89414000D01*
X139356338Y-96430338D02*
X138366472Y-95440472D01*
X138366472Y-95440472D02*
X138366471Y-93151753D01*
X138366471Y-93151753D02*
X138385473Y-93132751D01*
X138385473Y-90399527D02*
X139371000Y-89414000D01*
X139623800Y-96578800D02*
X139623800Y-97205800D01*
X138683978Y-91205022D02*
X138683978Y-95355202D01*
X138684011Y-91204989D02*
X138683978Y-91205022D01*
X139623800Y-96295024D02*
X139623800Y-96578800D01*
X138683978Y-95355202D02*
X139623800Y-96295024D01*
X138683989Y-91204967D02*
X138684011Y-91204989D01*
X138683989Y-90805011D02*
X138683989Y-91204967D01*
X140075000Y-89414000D02*
X138683989Y-90805011D01*
X140208000Y-89414000D02*
X140075000Y-89414000D01*
X138684011Y-91204989D02*
X138684000Y-91204978D01*
X138937989Y-92537108D02*
X138938021Y-92537076D01*
X138937989Y-95249989D02*
X138937989Y-92537108D01*
X139890246Y-96202246D02*
X138937989Y-95249989D01*
X139890246Y-97205800D02*
X139890246Y-96202246D01*
X140895000Y-89414000D02*
X140393000Y-89916000D01*
X138938000Y-90932000D02*
X138938000Y-91099754D01*
X138938021Y-92537076D02*
X138938022Y-92537076D01*
X140970000Y-89414000D02*
X140895000Y-89414000D01*
X140393000Y-89916000D02*
X139954000Y-89916000D01*
X139954000Y-89916000D02*
X138938000Y-90932000D01*
X138938000Y-91099754D02*
X138938021Y-91099775D01*
X138938021Y-91099775D02*
X138938021Y-91861775D01*
X138938021Y-91861775D02*
X138938021Y-92537076D01*
X152693370Y-97330260D02*
X152693370Y-96607630D01*
X152693370Y-96607630D02*
X153924000Y-95377000D01*
X153924000Y-95377000D02*
X153924000Y-94557000D01*
X138684000Y-89681000D02*
X138684000Y-89414000D01*
X138112463Y-95545687D02*
X138112463Y-90252537D01*
X139090400Y-96523624D02*
X138112463Y-95545687D01*
X139090400Y-97205800D02*
X139090400Y-96523624D01*
X138112463Y-90252537D02*
X138684000Y-89681000D01*
X143002000Y-93922000D02*
X143102000Y-93922000D01*
X143102000Y-93922000D02*
X143726916Y-94546916D01*
X143726916Y-94546916D02*
X143726916Y-94958916D01*
X143726916Y-97332800D02*
X143726916Y-94958916D01*
M02*
